# xmcd
# Copyright (C) 1995-1998 Ti Kan
#
# Track frame offsets:
#       150
#       13605
#       29707
#       44213
#       64277
#       78813
#       90773
#       113260
#       126515
#       141052
#       157012
#       171429
#       189030
#
# Disc length: 2788 seconds
#
# Revision: 0
# Processed by: cddbd v1.5.2PL0 Copyright (c) Steve Scherf et al.
# Submitted via: CD-Import v1.0
#
DISCID=a70ae20d
DTITLE=Transmartha - Transmartha
DYEAR=1900
DGENRE=
TTITLE0=I've Got A Girl
TTITLE1=Horses
TTITLE2=Stupid Little Louise
TTITLE3=Are You The One?
TTITLE4=Whiskeybar
TTITLE5=Don't Wanna Be Like You
TTITLE6=Ain't She?
TTITLE7=Ain't No Ticket
TTITLE8=Try Try Try
TTITLE9=Attention
TTITLE10=Can^t Get Her Out Of Ny Head
TTITLE11=Fake It
TTITLE12=Way Out Of Reach
EXTD=
EXTT0=
EXTT1=
EXTT2=
EXTT3=
EXTT4=
EXTT5=
EXTT6=
EXTT7=
EXTT8=
EXTT9=
EXTT10=
EXTT11=
EXTT12=
PLAYORDER=
